<?xml version="1.0" encoding="utf-8"?>
<!-- Generator: Adobe Illustrator 24.0.1, SVG Export Plug-In . SVG Version: 6.00 Build 0)  -->
<svg version="1.1" id="Слой_1" xmlns="http://www.w3.org/2000/svg" xmlns:xlink="http://www.w3.org/1999/xlink" x="0px" y="0px"
	 viewBox="0 0 10 10" style="enable-background:new 0 0 10 10;" xml:space="preserve">
<style type="text/css">
	.st0{fill:#006C2D;stroke:#FFFFFF;stroke-width:0.25;stroke-miterlimit:10;}
	.st1{fill:#FFED00;}
	.st2{fill:#FFFFFF;}
</style>
<g>
	<path class="st0" d="M2,4.8l0,2.3c0,0,2.8,3.1,6.2,0l0-2.4"/>
	<g>
		<polygon class="st1" points="0.2,3.9 5,1.4 9.8,3.8 4.9,6.2 		"/>
		<path class="st2" d="M5,1.5l4.6,2.3L4.9,6.1L0.4,3.9L5,1.5 M5,1.3L5,1.3L0.3,3.7L0,3.9l0.4,0.2l4.5,2.2l0.1,0l0.1,0L9.6,4L10,3.8
			L9.7,3.6L5,1.3L5,1.3L5,1.3z"/>
	</g>
</g>
</svg>
