<?xml version="1.0" encoding="utf-8"?>
<!-- Generator: Adobe Illustrator 24.0.1, SVG Export Plug-In . SVG Version: 6.00 Build 0)  -->
<svg version="1.1" id="Слой_1" xmlns="http://www.w3.org/2000/svg" xmlns:xlink="http://www.w3.org/1999/xlink" x="0px" y="0px"
	 viewBox="0 0 10 10" style="enable-background:new 0 0 10 10;" xml:space="preserve">
<style type="text/css">
	.st0{fill:#006C2D;}
</style>
<path class="st0" d="M6.3,6.9c0,0.4,0.1,0.7,0.1,1.1C6.3,8.1,6.1,8.3,6,8.5c0,0.2-0.1,0.5-0.1,0.7C5.7,9.4,5.4,9.5,5.2,9.6
	c-0.1,0-0.3,0-0.4,0C4.6,9.5,4.3,9.4,4.1,9.2c0-0.2,0-0.5-0.1-0.7C3.9,8.3,3.7,8.1,3.6,8c0-0.4,0.1-0.7,0.1-1.1c0,0-0.1,0-0.1,0
	c-0.3-0.2-0.6-0.3-1-0.4C2.3,6,2,5.6,1.8,5.2c0-0.3-0.1-0.6-0.1-0.9c0.6,0.1,1.2,0.2,1.8,0.4C3.6,4.8,3.9,5,4.1,5.2
	c0,0,0-0.1,0.1-0.1C4.1,5,4,4.9,3.9,4.7C3.6,4.7,3.4,4.6,3.1,4.5C2.8,4.4,2.5,4.3,2.3,4.3L0.9,3L0.8,1.4c0.4,1.3,0.4,1.3,0.4,1.3
	l0,0l0.7-0.8L1.7,0.6L2.3,2L1.6,2.9l0.9,0.9l0.3-0.7l1.2-1l-0.9,1L2.9,3.9l1.5,0.4l0.4,0.6l0.1,0l0.1,0l0.4-0.6l1.5-0.4L6.9,3.1
	L6,2.1l1.2,1l0.3,0.7l1-0.9L7.7,2l0.6-1.4L8.1,1.9l0.7,0.8l0.4-1.3L9.1,3L7.7,4.3L6.1,4.8L5.8,5.2l0.1,0.1l0.8-0.6l1.8-0.3L8.3,5.2
	L7.4,6.4L6.3,6.9L6.3,6.9z"/>
</svg>
