<?xml version="1.0" encoding="utf-8"?>
<!-- Generator: Adobe Illustrator 24.0.1, SVG Export Plug-In . SVG Version: 6.00 Build 0)  -->
<svg version="1.1" id="Слой_1" xmlns="http://www.w3.org/2000/svg" xmlns:xlink="http://www.w3.org/1999/xlink" x="0px" y="0px"
	 viewBox="0 0 10 10" style="enable-background:new 0 0 10 10;" xml:space="preserve">
<style type="text/css">
	.st0{fill:#00A556;}
	.st1{fill:none;stroke:#35AB55;stroke-width:0.25;stroke-linecap:round;stroke-linejoin:round;stroke-miterlimit:10;}
	.st2{fill:none;stroke:#34AB54;stroke-width:0.25;stroke-linecap:round;stroke-linejoin:round;stroke-miterlimit:10;}
	.st3{fill:#FFED00;}
</style>
<g>
	<path class="st0" d="M5,8.2C4.7,7.7,4.4,7.3,4.1,6.8c-0.5,0-1,0-1.5,0.1C2.4,6.9,2.1,7.2,1.9,7.7c-0.2,0.6,0,1.2,0.5,1.6
		c1.8,0,3.5,0,5.3,0c0.1-0.1,0.4-0.4,0.5-0.8c0.3-0.8-0.4-1.6-0.5-1.6c-0.6,0-1.2-0.1-1.8-0.1C5.6,7.3,5.3,7.7,5,8.2z"/>
	<path class="st1" d="M3.3,0.7c0.3,0.5,0.5,1.1,0.8,1.6"/>
	<path class="st1" d="M6.9,0.7C6.7,1.3,6.5,1.8,6.2,2.3"/>
	<path class="st2" d="M0.9,3.2C1.5,3.5,2.1,3.7,2.6,4"/>
	<path class="st1" d="M7.7,3.8c0.5-0.3,1.1-0.5,1.6-0.8"/>
	<circle class="st3" cx="5.1" cy="4.6" r="1.6"/>
</g>
</svg>
