<?xml version="1.0" encoding="utf-8"?>
<!-- Generator: Adobe Illustrator 24.0.1, SVG Export Plug-In . SVG Version: 6.00 Build 0)  -->
<svg version="1.1" id="Слой_1" xmlns="http://www.w3.org/2000/svg" xmlns:xlink="http://www.w3.org/1999/xlink" x="0px" y="0px"
	 viewBox="0 0 10 10" style="enable-background:new 0 0 10 10;" xml:space="preserve">
<style type="text/css">
	.st0{fill:none;stroke:#006C2D;stroke-width:0.25;stroke-linecap:round;stroke-linejoin:round;stroke-miterlimit:10;}
	.st1{fill:none;stroke:#006C2D;stroke-width:0.25;stroke-miterlimit:10;}
	.st2{fill:#FFED00;stroke:#FFED00;stroke-width:0.5;stroke-linecap:round;stroke-linejoin:round;stroke-miterlimit:10;}
</style>
<g>
	<path class="st0" d="M2.6,3.5c-0.2,0-0.7-0.2-1.1-0.6C1.1,2.5,1,1.9,1,1.8c0.6,0,1.1,0,1.7,0c0-0.2,0-0.4,0-0.6c1.7,0,3.3,0,5,0
		c0,0.2,0,0.4,0,0.7c0.6,0,1.1,0,1.7,0C9.3,2.1,9.1,2.4,8.9,2.7C8.4,3.3,7.9,3.5,7.7,3.6c0,0.6,0,1.3,0,1.9C7.6,5.7,7.4,6.1,7.1,6.5
		C6.5,7,5.9,7.2,5.6,7.3c-0.3,0-1,0.1-1.7-0.3C3,6.6,2.7,5.9,2.6,5.7C2.6,5,2.6,4.2,2.6,3.5z"/>
	<line class="st0" x1="2.7" y1="9.2" x2="7.5" y2="9.2"/>
	<line class="st0" x1="5.1" y1="9.2" x2="5.1" y2="7.3"/>
	<line class="st1" x1="7.7" y1="1.8" x2="7.7" y2="3.8"/>
	<line class="st1" x1="2.6" y1="1.8" x2="2.6" y2="3.9"/>
	<polygon class="st2" points="5.2,2.3 5.7,3.3 6.9,3.5 6,4.3 6.2,5.5 5.2,4.9 4.1,5.5 4.3,4.3 3.5,3.5 4.7,3.3 	"/>
</g>
</svg>
