<?xml version="1.0" encoding="utf-8"?>
<!-- Generator: Adobe Illustrator 24.0.1, SVG Export Plug-In . SVG Version: 6.00 Build 0)  -->
<svg version="1.1" id="Слой_1" xmlns="http://www.w3.org/2000/svg" xmlns:xlink="http://www.w3.org/1999/xlink" x="0px" y="0px"
	 viewBox="0 0 10 10" style="enable-background:new 0 0 10 10;" xml:space="preserve">
<style type="text/css">
	.st0{fill:#FFED00;}
	.st1{fill:#006C2D;}
	.st2{fill:none;stroke:#FFFFFF;stroke-width:0.5;stroke-linecap:round;stroke-linejoin:round;}
</style>
<g>
	<g>
		<g id="XMLID_1_">
			<g>
				<path class="st0" d="M7.7,4.9C7.6,5.2,7.5,5.3,7.3,5.6c-0.6,0.8-0.9,1-1,1.5c-0.1,0.2,0,0.5,0,0.6c-0.9,0-1.9,0-2.8,0
					c0-0.2,0-0.4,0-0.6C3.4,7,3.3,6.8,3.2,6.5c-0.4-0.7-0.7-0.9-1-1.3C1.6,4.3,1.9,3.1,1.9,3c0.2-0.8,0.8-1.3,0.9-1.5
					C3.5,1,4.3,0.9,4.6,0.8c0.2,0,1.4-0.2,2.4,0.7c0.8,0.7,0.9,1.7,0.9,2C7.9,3.7,7.9,4.3,7.7,4.9z"/>
				<path class="st1" d="M3.5,8.9C3.4,8.7,3.3,8.5,3.4,8.1c1,0,2,0,2.9,0c0,0.1,0.1,0.5,0,0.7C6.2,9,6,9.1,6,9.2
					C5.8,9.3,5.6,9.3,5.5,9.5C5.4,9.6,5.4,9.7,5.4,9.8c-0.4,0-0.8,0-1.2,0c0-0.1,0-0.2,0-0.3C4.1,9.1,3.7,9.2,3.5,8.9z"/>
			</g>
			<g>
				<path class="st2" d="M2.9,4c0-0.2,0-0.7,0.2-1.2c0.4-1,1.4-1.2,1.5-1.3"/>
			</g>
		</g>
	</g>
</g>
</svg>
