<?xml version="1.0" encoding="utf-8"?>
<!-- Generator: Adobe Illustrator 24.0.1, SVG Export Plug-In . SVG Version: 6.00 Build 0)  -->
<svg version="1.1" id="Слой_1" xmlns="http://www.w3.org/2000/svg" xmlns:xlink="http://www.w3.org/1999/xlink" x="0px" y="0px"
	 viewBox="0 0 40 40" style="enable-background:new 0 0 40 40;" xml:space="preserve">
<style type="text/css">
	.st0{fill:#FFED00;}
	.st1{fill:#F9B233;}
</style>
<g>
	<path class="st0" d="M33.9,4.6C28.1,4.5,21.4,7.4,17.2,12c-4,0.1-7.9,1.7-10.8,4.5c-0.2,0.2-0.2,0.4-0.2,0.6
		c0.1,0.2,0.3,0.4,0.5,0.4l4.8,0.7L11,18.8c-0.2,0.2-0.2,0.6,0,0.8l8,7.7c0.1,0.1,0.3,0.2,0.4,0.2c0.1,0,0.3-0.1,0.4-0.2l0.7-0.6
		l0.7,4.6c0,0.2,0.2,0.4,0.4,0.5c0.1,0,0.1,0,0.2,0c0.2,0,0.4-0.1,0.5-0.2c2.8-2.7,4.5-6.5,4.6-10.4c4.7-4.1,7.8-10.5,7.7-16.1
		C34.5,4.9,34.3,4.6,33.9,4.6L33.9,4.6z M28.2,15c-0.6,0.6-1.4,0.9-2.2,0.9c-0.8,0-1.6-0.3-2.2-0.9c-1.2-1.2-1.2-3.1,0-4.3
		c1.2-1.2,3.2-1.2,4.4,0C29.4,11.9,29.4,13.8,28.2,15z"/>
	<path class="st1" d="M8.1,24.9c-1.3,1.3-3.2,7.1-3.4,7.8c-0.1,0.2,0,0.4,0.2,0.6c0.1,0.1,0.3,0.2,0.4,0.2c0.1,0,0.1,0,0.2,0
		c0.7-0.2,6.7-2,8-3.3c1.5-1.5,1.5-3.8,0-5.3C12,23.5,9.6,23.5,8.1,24.9L8.1,24.9z"/>
</g>
</svg>
