<?xml version="1.0" encoding="utf-8"?>
<!-- Generator: Adobe Illustrator 24.0.1, SVG Export Plug-In . SVG Version: 6.00 Build 0)  -->
<svg version="1.1" id="Слой_1" xmlns="http://www.w3.org/2000/svg" xmlns:xlink="http://www.w3.org/1999/xlink" x="0px" y="0px"
	 viewBox="0 0 10 10" style="enable-background:new 0 0 10 10;" xml:space="preserve">
<path d="M8.86,5.91L8.81,5.94C8.6,5.68,8.25,5.59,7.97,5.73c0,0,0,0,0,0L7.85,5.79C7.56,5.54,7.14,5.5,6.8,5.7L6.15,6.05H5.28
	c-0.19,0-0.37-0.04-0.54-0.12L4.62,5.87C3.93,5.53,3.11,5.61,2.5,6.08c0,0-0.01,0-0.01,0.01L2.2,6.34c-0.11,0.1-0.24,0.17-0.38,0.21
	L1.66,6.01C1.65,5.96,1.6,5.92,1.54,5.92H0.15c-0.07,0-0.13,0.06-0.13,0.13c0,0.01,0,0.01,0,0.02l0.46,3.8
	c0.01,0.06,0.06,0.11,0.13,0.11H2.7c0.07,0,0.13-0.06,0.13-0.13c0-0.01,0-0.03-0.01-0.04l-0.27-0.9L3.4,8.37
	c0.11-0.06,0.25-0.08,0.37-0.05c0,0,0.01,0,0.01,0l1.74,0.32c0.47,0.08,0.96,0.02,1.39-0.2c0.01,0,0.01-0.01,0.02-0.01l3-2.06
	C9.98,6.34,10,6.27,9.96,6.21C9.73,5.83,9.25,5.7,8.86,5.91z M8.09,5.96c0.16-0.08,0.36-0.01,0.48,0.11L7.44,6.68L7.37,6.71
	c-0.04-0.1-0.09-0.2-0.16-0.28L8.09,5.96z M6.93,5.92C6.93,5.92,6.93,5.92,6.93,5.92c0.21-0.12,0.47-0.12,0.67,0L7.02,6.24
	C6.91,6.16,6.78,6.1,6.65,6.07L6.93,5.92z M0.73,9.72L0.3,6.18h1.15l1.08,3.54H0.73z M6.78,8.22c-0.38,0.18-0.8,0.24-1.22,0.17
	L3.83,8.07C3.64,8.03,3.44,8.05,3.27,8.15c0,0,0,0-0.01,0l-0.8,0.5L1.9,6.8c0.17-0.05,0.34-0.14,0.47-0.26l0.28-0.25
	c0.54-0.4,1.25-0.47,1.85-0.18l0.12,0.06c0.2,0.1,0.43,0.15,0.65,0.15h1.15c0.35,0,0.65,0.25,0.72,0.59L6.32,6.86
	c-0.3-0.01-0.61,0-0.91,0.04C5.34,6.92,5.29,6.98,5.3,7.05c0.01,0.07,0.07,0.12,0.14,0.11c0.29-0.04,0.57-0.05,0.86-0.04l0.98,0.04
	c0,0,0,0,0.01,0c0.07,0,0.13-0.06,0.13-0.13c0-0.02,0-0.04,0-0.06L7.56,6.9l1.43-0.77c0.23-0.12,0.5-0.08,0.68,0.11L6.78,8.22z"/>
<path d="M1.14,9.19c0,0.23,0.18,0.41,0.41,0.41s0.41-0.18,0.41-0.41c0-0.23-0.18-0.41-0.41-0.41C1.32,8.78,1.14,8.96,1.14,9.19z
	 M1.55,9.04c0.08,0,0.15,0.07,0.15,0.15c0,0.08-0.07,0.15-0.15,0.15c-0.08,0-0.15-0.07-0.15-0.15C1.4,9.1,1.46,9.04,1.55,9.04
	L1.55,9.04z"/>
<path d="M5.98,1.42V1c0-0.54-0.44-0.98-0.99-0.98C4.46,0.02,4.02,0.46,4.02,1v0.43c0,0.54,0.44,0.98,0.99,0.98
	C5.55,2.4,5.98,1.96,5.98,1.42z M4.28,1.42V1c0-0.4,0.33-0.72,0.73-0.72C5.4,0.28,5.72,0.6,5.73,1v0.43c0,0.4-0.33,0.72-0.73,0.72
	C4.6,2.14,4.28,1.82,4.28,1.42z"/>
<path d="M3.42,5.07h3.17c0.07,0,0.13-0.06,0.13-0.13l0,0v-0.3h2.17c0.07,0,0.13-0.06,0.13-0.13V3.68c0-0.51-0.4-0.93-0.91-0.97
	C8.03,2.7,8,2.75,7.97,2.78C7.76,3.04,7.39,3.07,7.13,2.87C7.1,2.83,7.06,2.8,7.03,2.76C7.01,2.73,6.97,2.71,6.93,2.71
	c-0.17,0-0.33,0.05-0.48,0.14C6.26,2.62,5.98,2.49,5.69,2.47c-0.07,0-0.1,0.04-0.13,0.08c-0.24,0.3-0.68,0.34-0.98,0.1
	C4.53,2.61,4.49,2.57,4.46,2.52C4.43,2.49,4.39,2.47,4.35,2.47C4.07,2.47,3.8,2.59,3.6,2.8C3.58,2.81,3.57,2.83,3.55,2.85
	C3.42,2.77,3.27,2.72,3.11,2.71C3.04,2.7,3.01,2.75,2.98,2.78C2.77,3.04,2.4,3.07,2.14,2.87C2.1,2.83,2.07,2.8,2.04,2.76
	C2.02,2.73,1.98,2.71,1.93,2.71C1.41,2.72,0.99,3.15,0.99,3.68v0.84c0,0.07,0.06,0.13,0.13,0.13h2.17v0.3
	C3.29,5.01,3.35,5.07,3.42,5.07z M6.87,2.97c0.31,0.35,0.85,0.39,1.2,0.08C8.1,3.02,8.12,3,8.15,2.97c0.35,0.05,0.6,0.35,0.61,0.7
	v0.71H6.71V3.56c0-0.17-0.04-0.34-0.12-0.5C6.68,3.01,6.77,2.98,6.87,2.97L6.87,2.97z M4.29,2.73c0.35,0.4,0.95,0.44,1.35,0.1
	c0.03-0.03,0.07-0.06,0.1-0.1c0.41,0.06,0.72,0.41,0.72,0.82v1.26H3.55V3.56C3.55,3.13,3.87,2.78,4.29,2.73z M1.25,4.39V3.68
	c0-0.36,0.27-0.66,0.63-0.71c0.31,0.35,0.85,0.39,1.2,0.08C3.11,3.02,3.13,3,3.15,2.97c0.09,0.01,0.17,0.04,0.25,0.09
	C3.33,3.22,3.29,3.38,3.29,3.56v0.83L1.25,4.39z"/>
<path d="M8.37,1.81V1.44c0-0.48-0.39-0.88-0.88-0.88S6.62,0.95,6.62,1.44v0.37c0,0.48,0.39,0.88,0.88,0.88S8.37,2.29,8.37,1.81z
	 M6.88,1.81V1.44c0-0.34,0.28-0.62,0.62-0.62c0.34,0,0.62,0.28,0.62,0.62c0,0,0,0,0,0v0.37c0,0.34-0.28,0.62-0.62,0.62
	C7.16,2.43,6.88,2.15,6.88,1.81C6.88,1.81,6.88,1.81,6.88,1.81z"/>
<path d="M3.38,1.81V1.44c0-0.48-0.39-0.88-0.88-0.88S1.63,0.95,1.63,1.44v0.37c0,0.48,0.39,0.88,0.88,0.88S3.38,2.29,3.38,1.81z
	 M1.89,1.81V1.44c0-0.34,0.28-0.62,0.62-0.62c0.34,0,0.62,0.28,0.62,0.62c0,0,0,0,0,0v0.37c0,0.34-0.28,0.62-0.62,0.62
	C2.16,2.43,1.89,2.15,1.89,1.81C1.89,1.81,1.89,1.81,1.89,1.81z"/>
</svg>
